<svg width="88" height="126" viewBox="0 0 88 126" fill="none" xmlns="http://www.w3.org/2000/svg">
<path opacity="0.5" d="M34.953 89.1965C35.9058 89 36.8817 88.946 37.8499 89.0362C37.9395 89.0355 38.0253 88.9989 38.0886 88.9343C38.152 88.8697 38.1879 88.7822 38.1886 88.6908C38.1868 88.5998 38.1505 88.513 38.0874 88.4487C38.0242 88.3843 37.9391 88.3473 37.8499 88.3455C36.8208 88.2545 35.7843 88.3168 34.7729 88.5304C34.6863 88.5549 34.6128 88.6133 34.5685 88.693C34.5242 88.7726 34.5127 88.867 34.5366 88.9552C34.5605 89.0435 34.6177 89.1185 34.6958 89.1637C34.7739 89.209 34.8664 89.2208 34.953 89.1965H34.953Z" fill="#CCCCCC"/>
<path d="M11.8324 83.1174L11.8398 83.1388C11.8874 83.2754 11.9858 83.3862 12.1125 83.4479C12.2391 83.5095 12.3841 83.5174 12.5162 83.4699L11.8324 83.1174ZM11.8324 83.1174L11.8189 83.0991C9.97237 80.5948 8.90823 77.7995 8.87334 74.6138L8.87307 74.5894L8.86511 74.5664C8.81783 74.4296 8.82572 74.2792 8.8869 74.1485C8.94803 74.018 9.057 73.9183 9.18906 73.8705C9.1891 73.8704 9.18913 73.8704 9.18916 73.8704L15.5384 71.5797C15.6705 71.5323 15.8156 71.5401 15.9422 71.6017C16.0689 71.6634 16.1673 71.7742 16.2149 71.9108C16.2149 71.9108 16.2149 71.9108 16.2149 71.9108L19.1896 80.4832L11.8324 83.1174ZM18.8656 81.1792L12.5164 83.4699L19.1897 80.4834C19.2369 80.6201 19.229 80.7704 19.1679 80.9011C19.1067 81.0317 18.9977 81.1313 18.8656 81.1792C18.8656 81.1792 18.8656 81.1792 18.8656 81.1792Z" fill="#FFE8BE" stroke="#000F3E" stroke-width="0.3"/>
<path d="M16.1058 76.6187L11.855 78.1658C11.7874 78.1904 11.7129 78.1866 11.648 78.1552C11.5831 78.1239 11.5331 78.0675 11.5089 77.9986C11.4848 77.9296 11.4885 77.8537 11.5193 77.7875C11.55 77.7213 11.6053 77.6703 11.6729 77.6457L15.9237 76.0986C15.9913 76.0742 16.0656 76.0781 16.1304 76.1095C16.1951 76.1409 16.245 76.1972 16.2691 76.2661C16.2932 76.3349 16.2896 76.4107 16.259 76.4768C16.2283 76.5429 16.1732 76.5939 16.1058 76.6187H16.1058Z" fill="#FFD699"/>
<path d="M12.2903 76.3993L11.3552 76.7397C11.3217 76.752 11.2862 76.7575 11.2506 76.7559C11.2151 76.7542 11.1802 76.7454 11.148 76.73C11.1157 76.7146 11.0868 76.6928 11.0628 76.666C11.0389 76.6392 11.0203 76.6078 11.0082 76.5737C10.9962 76.5395 10.9908 76.5033 10.9925 76.467C10.9942 76.4308 11.0028 76.3952 11.018 76.3624C11.0331 76.3296 11.0545 76.3001 11.0808 76.2757C11.1072 76.2513 11.138 76.2324 11.1715 76.2201L11.1731 76.2195L12.1083 75.8792C12.1758 75.8548 12.2501 75.8588 12.3149 75.8902C12.3796 75.9216 12.4295 75.9779 12.4536 76.0467C12.4777 76.1155 12.474 76.1913 12.4434 76.2574C12.4128 76.3235 12.3578 76.3745 12.2903 76.3993Z" fill="#FFD699"/>
<path d="M16.9058 78.9054L12.655 80.4526C12.5874 80.4769 12.5131 80.473 12.4484 80.4416C12.3837 80.4102 12.3338 80.3539 12.3097 80.285C12.2856 80.2162 12.2893 80.1404 12.3199 80.0743C12.3505 80.0083 12.4055 79.9572 12.4729 79.9324L16.7237 78.3853C16.7913 78.3605 16.8657 78.3642 16.9306 78.3953C16.9955 78.4265 17.0457 78.4827 17.07 78.5515C17.0943 78.6203 17.0909 78.6962 17.0604 78.7625C17.0299 78.8287 16.9749 78.8799 16.9074 78.9048L16.9058 78.9054Z" fill="#FFD699"/>
<path d="M16.5055 77.7621L12.2547 79.3093C12.1871 79.334 12.1127 79.3303 12.0477 79.299C11.9828 79.2677 11.9327 79.2114 11.9085 79.1425C11.8842 79.0735 11.8878 78.9976 11.9185 78.9314C11.9492 78.8652 12.0044 78.8141 12.072 78.7894L12.0726 78.7892L16.3234 77.242C16.391 77.2176 16.4653 77.2216 16.5301 77.2529C16.5949 77.2843 16.6448 77.3406 16.6689 77.4095C16.693 77.4784 16.6893 77.5542 16.6587 77.6203C16.6281 77.6864 16.573 77.7374 16.5055 77.7621H16.5055Z" fill="#FFD699"/>
<path d="M13.123 72.6667C13.123 73.2225 12.6819 73.668 12.1438 73.668C11.6058 73.668 11.1646 73.2225 11.1646 72.6667C11.1646 72.1109 11.6058 71.6654 12.1438 71.6654C12.6819 71.6654 13.123 72.1109 13.123 72.6667Z" fill="#FEF4F0" stroke="#000F3E" stroke-width="0.3"/>
<path d="M53.4703 22.9377C53.4883 24.6232 54.0145 28.1325 53.6374 29.7836L53.5764 29.6454C53.2629 29.8988 52.9299 30.126 52.5805 30.3247C52.3285 29.6997 51.9517 29.1351 51.4739 28.6668C51.5368 29.4416 51.447 30.2214 51.2097 30.9603C49.7982 31.4784 47.3209 29.8458 45.7852 29.8112C43.3146 29.7537 40.9072 29.1273 38.5473 28.4641C37.7095 28.2293 36.7881 27.923 36.4087 27.2138C36.0293 26.5045 36.7083 25.739 36.6639 24.9387C36.3474 19.2382 39.0103 18.2827 41.5441 16.7595C42.1017 16.4243 42.3752 15.7026 43.0052 15.4217C43.8792 15.0325 44.9203 15.219 45.871 15.4147C45.6349 15.3354 45.4228 15.1955 45.2551 15.0083C45.0874 14.8212 44.9698 14.5932 44.9135 14.3463C44.8739 14.1043 44.9005 13.8558 44.9906 13.6283C45.0806 13.4007 45.2306 13.203 45.4239 13.0568C45.9478 12.6446 46.7292 12.5939 47.3977 12.7689C48.0434 12.9749 48.6543 13.2809 49.2088 13.6762C49.5854 13.8868 49.9219 14.1644 50.2025 14.496C50.3347 14.6529 50.4168 14.8472 50.4378 15.0529C50.4587 15.2587 50.4176 15.466 50.3199 15.6473C50.1994 15.8027 50.046 15.9284 49.8712 16.0149C49.6964 16.1014 49.5048 16.1466 49.3105 16.147C49.0111 16.1559 48.7119 16.1241 48.4207 16.0526C49.7554 16.3883 50.9582 17.1304 51.8691 18.1803C53.0006 19.5228 53.4499 21.2521 53.4703 22.9377Z" fill="#000F3E"/>
<path d="M14.1313 39.1189L14.1313 39.1189L14.1307 39.1175C14.1234 39.1022 14.1163 39.0867 14.1095 39.0712L14.1094 39.0711C14.0108 38.8479 13.9561 38.607 13.9487 38.3621C13.9413 38.1172 13.9813 37.8733 14.0663 37.6443C14.1514 37.4153 14.2797 37.2058 14.444 37.0277C14.608 36.8498 14.8046 36.7067 15.0226 36.6064C15.4087 36.4336 15.8399 36.396 16.2491 36.4993C16.6585 36.6027 17.0234 36.8415 17.2865 37.1791L17.304 37.2015L17.3285 37.216L25.7261 42.1865L22.8006 44.2222L17.0724 39.9309L16.9861 39.8662L16.8973 39.9274C16.8138 39.985 16.7257 40.0354 16.6341 40.0782C16.1772 40.282 15.6605 40.2961 15.1936 40.1176C14.7262 39.9389 14.3448 39.5809 14.1313 39.1189Z" fill="#FBB9B9" stroke="#000F3E" stroke-width="0.3"/>
<path d="M73.9468 35.3772L73.9468 35.3772L73.9484 35.377C73.9649 35.3747 73.9815 35.3727 73.9981 35.3709C74.2358 35.3448 74.4763 35.3667 74.7058 35.4354C74.9354 35.5041 75.1495 35.6183 75.3361 35.7715C75.5227 35.9248 75.678 36.1142 75.793 36.329C75.9079 36.5436 75.9804 36.7793 76.0062 37.0226C76.0473 37.4524 75.9477 37.8838 75.7234 38.2494C75.4989 38.6152 75.1624 38.8944 74.7668 39.044L74.7401 39.0541L74.7189 39.0734L67.4794 45.6598L66.4922 42.1923L72.277 37.9741L72.3611 37.9127L72.3331 37.8125C72.3053 37.7133 72.2856 37.6119 72.2742 37.5094C72.2262 37.001 72.3745 36.4939 72.687 36.0958C72.9997 35.6976 73.4518 35.4401 73.9468 35.3772Z" fill="#FBB9B9" stroke="#000F3E" stroke-width="0.3"/>
<path d="M31.2779 115.491L31.2176 122.79L29.6107 122.776L28.8072 115.47L31.2779 115.491Z" fill="#FBB9B9" stroke="#000F3E" stroke-width="0.3"/>
<path d="M28.5757 119.161L29.2609 119.211L29.2613 119.211L31.8805 119.405L31.8809 119.405L32.3933 119.442L32.8391 125.848L31.2812 125.833L30.9874 124.079L30.9067 123.597L30.7031 124.041L29.8872 125.822L25.0923 125.779C25.0923 125.779 25.0922 125.779 25.0922 125.779C24.844 125.776 24.6043 125.667 24.4267 125.473C24.2487 125.278 24.1481 125.013 24.15 124.735L24 124.734L24.15 124.735C24.1513 124.566 24.1908 124.4 24.2645 124.252L24.1301 124.185L24.2645 124.252C24.3381 124.104 24.4435 123.979 24.5706 123.886L28.5005 121.016L28.5615 120.972L28.5621 120.896L28.5757 119.161Z" fill="white" stroke="#000F3E" stroke-width="0.3"/>
<path d="M51.9425 108.41L56.075 114.368L54.7612 115.316L49.9236 109.866L51.9425 108.41Z" fill="#FBB9B9" stroke="#000F3E" stroke-width="0.3"/>
<path d="M51.7794 112.754L52.3604 112.387L52.3607 112.387L54.5847 110.99L54.585 110.99L55.0193 110.715L59.1784 115.609L57.9152 116.521L56.6381 115.283L56.2873 114.943L56.3869 115.421L56.7859 117.338L52.9001 120.148C52.9001 120.148 52.9 120.148 52.9 120.148C52.6986 120.293 52.4414 120.348 52.1829 120.296C51.924 120.245 51.6857 120.091 51.5226 119.867L51.4012 119.955L51.5226 119.867C51.4234 119.73 51.3568 119.573 51.3282 119.41L51.1805 119.436L51.3282 119.41C51.2997 119.247 51.3101 119.083 51.3573 118.933L52.8194 114.292L52.8421 114.22L52.7978 114.159L51.7794 112.754Z" fill="white" stroke="#000F3E" stroke-width="0.3"/>
<path d="M32.7852 61.2688L38.2754 48.2689H50.9211L47.2736 61.836L32.7852 61.2688Z" fill="#F4C7C7"/>
<path d="M44.4536 94.4298C44.3377 94.525 44.3377 94.525 44.3378 94.5251L44.338 94.5254L44.339 94.5266L44.3429 94.5314L44.3584 94.5502L44.4188 94.6236L44.6483 94.9029C44.8463 95.1437 45.1298 95.4883 45.4715 95.9035C46.155 96.7339 47.0717 97.8465 48.0045 98.9755C48.9373 100.105 49.8863 101.25 50.6343 102.146C51.379 103.039 51.9315 103.692 52.0656 103.829C52.1313 103.896 52.1757 103.941 52.2074 103.978C52.2392 104.014 52.2485 104.031 52.2516 104.039L52.2518 104.04C52.2554 104.048 52.259 104.057 52.2275 104.19C52.168 104.44 52.0535 104.93 52.0849 106.158C52.1004 106.765 52.147 107.147 52.2314 107.383C52.2745 107.504 52.3316 107.598 52.4102 107.665C52.4909 107.733 52.5806 107.761 52.6666 107.77C52.7579 107.78 52.8429 107.775 52.9263 107.77C53.1505 107.756 53.3634 107.743 53.6559 108.025C53.8693 108.231 53.9623 108.397 53.9953 108.522C54.027 108.643 54.0058 108.736 53.9659 108.81C53.9239 108.889 53.8583 108.951 53.7982 108.995C53.7689 109.016 53.7425 109.032 53.724 109.042C53.7148 109.048 53.7076 109.051 53.7031 109.053L53.6986 109.056L53.6986 109.056L53.6985 109.056L53.6984 109.056L53.6982 109.056L53.698 109.056L53.6728 109.067L53.653 109.087L50.6885 112.11L37.6017 96.1843L37.9896 78.3539L37.6933 78.3176L34.0121 94.5957L34.0084 94.6121V94.6288V111.421C34.0084 111.926 33.9268 112.247 33.73 112.571C33.5274 112.904 33.2013 113.244 32.6873 113.78L32.6776 113.79C32.41 114.07 32.282 114.315 32.282 114.548C32.282 114.784 32.4123 114.964 32.5476 115.109C32.605 115.17 32.6685 115.231 32.7291 115.288C32.7404 115.299 32.7517 115.309 32.7628 115.32C32.8349 115.389 32.9022 115.455 32.961 115.524C33.0775 115.661 33.1506 115.8 33.1506 115.969C33.1506 116.366 32.9406 116.868 32.7146 117.288C32.6036 117.494 32.4924 117.674 32.4089 117.802C32.3708 117.86 32.3385 117.908 32.3148 117.942H27.8728L27.4852 71.92L32.8799 60.4452L47.6245 60.8372C47.9913 61.4877 48.2303 62.4701 48.3587 63.7117C48.4914 64.9949 48.5044 66.5378 48.4282 68.2426C48.2759 71.6518 47.7677 75.6935 47.157 79.5699C46.5465 83.4456 45.834 87.1523 45.2742 89.8904C44.9943 91.2594 44.7525 92.386 44.5808 93.1703C44.4949 93.5625 44.4266 93.869 44.3797 94.0775C44.3562 94.1818 44.3382 94.2615 44.326 94.3151L44.3121 94.3758L44.3086 94.391L44.3077 94.3949L44.3075 94.3958C44.3075 94.396 44.3074 94.3961 44.4536 94.4298ZM44.4536 94.4298L44.3074 94.3961L44.2909 94.468L44.3377 94.525L44.4536 94.4298Z" fill="#7A87F8" stroke="#000F3E" stroke-width="0.3"/>
<mask id="path-17-inside-1_1_2361" fill="white">
<path fill-rule="evenodd" clip-rule="evenodd" d="M48.0542 61.5642C48.0542 61.5642 30.4711 62.299 31.5005 59.5C31.881 58.4654 32.8373 57.0934 33.7874 55.7301C35.4078 53.4052 37.0104 51.1059 35.7083 50.5501C35.3523 50.3982 35.017 50.2672 34.7125 50.1483L34.7124 50.1483C34.163 49.9337 33.7136 49.7582 33.4229 49.5689C31.5258 49.088 23.3407 47.0241 21.9774 46.8696C20.7909 46.7352 20.9213 45.7745 21.0453 44.8605C21.0827 44.585 21.1195 44.3138 21.1195 44.0707C21.1195 43.3975 20.8373 43.5158 20.3181 43.7334C20.0277 43.8551 19.6631 44.0079 19.2323 44.0707C18.0314 44.2456 17.6768 41.4583 17.6768 41.4583L20.6048 38.4727C20.6048 38.4727 23.3499 39.5223 24.3793 39.5223C25.0204 39.5223 24.996 39.5902 24.8864 39.895C24.82 40.0795 24.7224 40.351 24.7224 40.7469C24.7224 41.4082 25.063 41.3056 25.6153 41.1392C25.9396 41.0415 26.3369 40.9218 26.7812 40.9218C27.9821 40.9218 30.8879 42.7317 30.8879 42.7317C30.8879 42.7317 34.1585 37.598 34.6732 35.4988C35.1879 33.3995 38.9744 33.3995 38.9744 33.3995L39.418 33.7494H40.7469L43.2504 29.376H46.7871L48.5689 33.3995H52.3312L52.3312 33.3996L52.3324 33.3995C52.3324 33.3995 56.119 33.3995 56.6337 35.4988C57.1484 37.598 60.2463 42.7317 60.2463 42.7317C60.2463 42.7317 63.3247 40.9218 64.5257 40.9218C64.97 40.9218 65.3673 41.0415 65.6916 41.1392C66.2439 41.3056 66.5845 41.4082 66.5845 40.7469C66.5845 40.351 66.4868 40.0795 66.4205 39.895C66.3109 39.5902 66.2864 39.5223 66.9276 39.5223C67.957 39.5223 70.702 38.4727 70.702 38.4727L73.6301 41.4583C73.6301 41.4583 73.2755 44.2456 72.0745 44.0707C71.6438 44.0079 71.2792 43.8551 70.9888 43.7334C70.4696 43.5158 70.1873 43.3975 70.1873 44.0707C70.1873 44.3138 70.2241 44.585 70.2615 44.8605C70.3856 45.7745 70.516 46.7352 69.3295 46.8696C67.7854 47.0446 57.4915 49.6686 57.4915 49.6686L52.5362 42.2744C52.5309 45.7997 52.3988 51.4975 51.6071 51.8215C51.3789 51.915 51.1554 51.9899 50.9518 52.0581C50.1288 52.3339 49.6309 52.5008 50.4561 53.3422L50.5669 53.455C51.5269 54.4319 52.0549 54.9693 51.6071 55.8878C51.1424 56.841 48.0542 61.5642 48.0542 61.5642Z"/>
</mask>
<path fill-rule="evenodd" clip-rule="evenodd" d="M48.0542 61.5642C48.0542 61.5642 30.4711 62.299 31.5005 59.5C31.881 58.4654 32.8373 57.0934 33.7874 55.7301C35.4078 53.4052 37.0104 51.1059 35.7083 50.5501C35.3523 50.3982 35.017 50.2672 34.7125 50.1483L34.7124 50.1483C34.163 49.9337 33.7136 49.7582 33.4229 49.5689C31.5258 49.088 23.3407 47.0241 21.9774 46.8696C20.7909 46.7352 20.9213 45.7745 21.0453 44.8605C21.0827 44.585 21.1195 44.3138 21.1195 44.0707C21.1195 43.3975 20.8373 43.5158 20.3181 43.7334C20.0277 43.8551 19.6631 44.0079 19.2323 44.0707C18.0314 44.2456 17.6768 41.4583 17.6768 41.4583L20.6048 38.4727C20.6048 38.4727 23.3499 39.5223 24.3793 39.5223C25.0204 39.5223 24.996 39.5902 24.8864 39.895C24.82 40.0795 24.7224 40.351 24.7224 40.7469C24.7224 41.4082 25.063 41.3056 25.6153 41.1392C25.9396 41.0415 26.3369 40.9218 26.7812 40.9218C27.9821 40.9218 30.8879 42.7317 30.8879 42.7317C30.8879 42.7317 34.1585 37.598 34.6732 35.4988C35.1879 33.3995 38.9744 33.3995 38.9744 33.3995L39.418 33.7494H40.7469L43.2504 29.376H46.7871L48.5689 33.3995H52.3312L52.3312 33.3996L52.3324 33.3995C52.3324 33.3995 56.119 33.3995 56.6337 35.4988C57.1484 37.598 60.2463 42.7317 60.2463 42.7317C60.2463 42.7317 63.3247 40.9218 64.5257 40.9218C64.97 40.9218 65.3673 41.0415 65.6916 41.1392C66.2439 41.3056 66.5845 41.4082 66.5845 40.7469C66.5845 40.351 66.4868 40.0795 66.4205 39.895C66.3109 39.5902 66.2864 39.5223 66.9276 39.5223C67.957 39.5223 70.702 38.4727 70.702 38.4727L73.6301 41.4583C73.6301 41.4583 73.2755 44.2456 72.0745 44.0707C71.6438 44.0079 71.2792 43.8551 70.9888 43.7334C70.4696 43.5158 70.1873 43.3975 70.1873 44.0707C70.1873 44.3138 70.2241 44.585 70.2615 44.8605C70.3856 45.7745 70.516 46.7352 69.3295 46.8696C67.7854 47.0446 57.4915 49.6686 57.4915 49.6686L52.5362 42.2744C52.5309 45.7997 52.3988 51.4975 51.6071 51.8215C51.3789 51.915 51.1554 51.9899 50.9518 52.0581C50.1288 52.3339 49.6309 52.5008 50.4561 53.3422L50.5669 53.455C51.5269 54.4319 52.0549 54.9693 51.6071 55.8878C51.1424 56.841 48.0542 61.5642 48.0542 61.5642Z" fill="#FFD699"/>
<path d="M31.5005 59.5L31.219 59.3964L31.5005 59.5ZM48.0542 61.5642L48.0667 61.864L48.2209 61.8575L48.3053 61.7284L48.0542 61.5642ZM33.7874 55.7301L33.5413 55.5586L33.7874 55.7301ZM35.7083 50.5501L35.5906 50.8261L35.7083 50.5501ZM34.7125 50.1483L34.601 50.4268L34.6033 50.4277L34.7125 50.1483ZM34.7124 50.1483L34.8238 49.8697L34.8215 49.8688L34.7124 50.1483ZM33.4229 49.5689L33.5866 49.3175L33.5449 49.2904L33.4966 49.2781L33.4229 49.5689ZM21.9774 46.8696L21.9436 47.1677H21.9436L21.9774 46.8696ZM21.0453 44.8605L21.3426 44.9009L21.0453 44.8605ZM20.3181 43.7334L20.2021 43.4567H20.2021L20.3181 43.7334ZM19.2323 44.0707L19.1891 43.7738H19.1891L19.2323 44.0707ZM17.6768 41.4583L17.4626 41.2483L17.3608 41.352L17.3792 41.4962L17.6768 41.4583ZM20.6048 38.4727L20.712 38.1925L20.5283 38.1223L20.3907 38.2626L20.6048 38.4727ZM24.8864 39.895L24.6041 39.7934L24.8864 39.895ZM25.6153 41.1392L25.7018 41.4264L25.6153 41.1392ZM30.8879 42.7317L30.7293 42.9863L30.9813 43.1433L31.1409 42.8929L30.8879 42.7317ZM34.6732 35.4988L34.9645 35.5702L34.6732 35.4988ZM38.9744 33.3995L39.1602 33.164L39.0785 33.0995H38.9744V33.3995ZM39.418 33.7494L39.2323 33.9849L39.314 34.0494H39.418V33.7494ZM40.7469 33.7494V34.0494H40.9208L41.0072 33.8984L40.7469 33.7494ZM43.2504 29.376V29.076H43.0765L42.99 29.2269L43.2504 29.376ZM46.7871 29.376L47.0614 29.2545L46.9823 29.076H46.7871V29.376ZM48.5689 33.3995L48.2946 33.521L48.3737 33.6995H48.5689V33.3995ZM52.3312 33.3995L52.6307 33.3825L52.6147 33.0995H52.3312V33.3995ZM52.3312 33.3996L52.0317 33.4166L52.0483 33.7098L52.3418 33.6994L52.3312 33.3996ZM52.3324 33.3995V33.0993L52.3218 33.0997L52.3324 33.3995ZM56.6337 35.4988L56.9251 35.4273V35.4273L56.6337 35.4988ZM60.2463 42.7317L59.9894 42.8867L60.1427 43.1406L60.3983 42.9903L60.2463 42.7317ZM65.6916 41.1392L65.605 41.4264H65.605L65.6916 41.1392ZM66.4205 39.895L66.1382 39.9965V39.9965L66.4205 39.895ZM70.702 38.4727L70.9162 38.2626L70.7785 38.1223L70.5949 38.1925L70.702 38.4727ZM73.6301 41.4583L73.9277 41.4962L73.946 41.352L73.8443 41.2483L73.6301 41.4583ZM72.0745 44.0707L72.0313 44.3675L72.0745 44.0707ZM70.9888 43.7334L70.8728 44.0101L70.9888 43.7334ZM70.2615 44.8605L70.5588 44.8202V44.8202L70.2615 44.8605ZM69.3295 46.8696L69.2957 46.5715L69.3295 46.8696ZM57.4915 49.6686L57.2423 49.8356L57.3603 50.0117L57.5656 49.9593L57.4915 49.6686ZM52.5362 42.2744L52.7854 42.1074L52.2377 41.2901L52.2362 42.2739L52.5362 42.2744ZM51.6071 51.8215L51.4935 51.5439L51.6071 51.8215ZM50.9518 52.0581L50.8565 51.7736H50.8565L50.9518 52.0581ZM50.4561 53.3422L50.242 53.5523L50.2421 53.5524L50.4561 53.3422ZM50.5669 53.455L50.3528 53.6652L50.3529 53.6653L50.5669 53.455ZM51.6071 55.8878L51.8768 56.0192L51.8768 56.0192L51.6071 55.8878ZM31.219 59.3964C31.1283 59.643 31.1368 59.8893 31.2471 60.1158C31.352 60.3313 31.5366 60.5038 31.7531 60.6441C32.1829 60.9227 32.8297 61.1325 33.5894 61.2966C35.12 61.6271 37.2432 61.7983 39.3797 61.8815C41.5207 61.9649 43.6923 61.9605 45.3276 61.9353C46.1455 61.9227 46.8298 61.9049 47.3099 61.8902C47.5499 61.8829 47.7389 61.8763 47.868 61.8716C47.9325 61.8692 47.9821 61.8673 48.0156 61.866C48.0323 61.8654 48.0451 61.8649 48.0536 61.8645C48.0579 61.8643 48.0612 61.8642 48.0634 61.8641C48.0645 61.8641 48.0653 61.864 48.0659 61.864C48.0661 61.864 48.0664 61.864 48.0665 61.864C48.0667 61.864 48.0667 61.864 48.0542 61.5642C48.0417 61.2645 48.0417 61.2645 48.0415 61.2645C48.0414 61.2645 48.0412 61.2645 48.041 61.2645C48.0405 61.2645 48.0397 61.2646 48.0387 61.2646C48.0366 61.2647 48.0335 61.2648 48.0293 61.265C48.021 61.2653 48.0085 61.2658 47.992 61.2665C47.9591 61.2678 47.91 61.2697 47.8461 61.272C47.7181 61.2767 47.5303 61.2832 47.2916 61.2905C46.814 61.3051 46.1327 61.3228 45.3183 61.3353C43.6889 61.3604 41.5291 61.3648 39.403 61.282C37.2724 61.199 35.1929 61.029 33.7161 60.7101C32.9722 60.5495 32.4142 60.3575 32.0794 60.1406C31.9136 60.0331 31.8261 59.9343 31.7865 59.8531C31.7523 59.7829 31.7441 59.7069 31.7821 59.6036L31.219 59.3964ZM33.5413 55.5586C32.6015 56.9071 31.6161 58.3166 31.219 59.3964L31.7821 59.6036C32.1459 58.6142 33.0731 57.2797 34.0336 55.9016L33.5413 55.5586ZM35.5906 50.8261C35.7069 50.8757 35.7735 50.9366 35.8138 50.9993C35.8551 51.0634 35.8826 51.1508 35.8854 51.2739C35.8913 51.5319 35.7877 51.8918 35.5724 52.3488C35.1453 53.2555 34.3572 54.3879 33.5413 55.5586L34.0336 55.9016C34.8381 54.7473 35.6615 53.5676 36.1152 52.6045C36.3403 52.1266 36.4945 51.6622 36.4853 51.2601C36.4805 51.0532 36.4323 50.8516 36.3183 50.6745C36.2034 50.496 36.0352 50.3635 35.8261 50.2742L35.5906 50.8261ZM34.6033 50.4277C34.9083 50.5468 35.2394 50.6762 35.5906 50.8261L35.8261 50.2742C35.4652 50.1202 35.1258 49.9877 34.8216 49.8689L34.6033 50.4277ZM34.601 50.4268L34.601 50.4268L34.8239 49.8698L34.8238 49.8697L34.601 50.4268ZM33.2592 49.8203C33.582 50.0305 34.0669 50.2182 34.6033 50.4277L34.8215 49.8688C34.2591 49.6492 33.8451 49.4858 33.5866 49.3175L33.2592 49.8203ZM21.9436 47.1677C22.6012 47.2422 24.963 47.79 27.4292 48.3884C29.8815 48.9834 32.4009 49.6193 33.3492 49.8597L33.4966 49.2781C32.5477 49.0376 30.026 48.4011 27.5707 47.8053C25.1293 47.2129 22.7169 46.6515 22.0111 46.5715L21.9436 47.1677ZM20.7481 44.8202C20.6887 45.2573 20.6109 45.7935 20.7303 46.2356C20.7934 46.4695 20.9139 46.6903 21.1253 46.861C21.3342 47.0296 21.6076 47.1297 21.9436 47.1677L22.0111 46.5715C21.7539 46.5424 21.5987 46.472 21.5022 46.3941C21.4082 46.3182 21.3466 46.2165 21.3096 46.0792C21.2285 45.7789 21.2779 45.3777 21.3426 44.9009L20.7481 44.8202ZM20.8195 44.0707C20.8195 44.2895 20.7862 44.5394 20.7481 44.8202L21.3426 44.9009C21.3793 44.6306 21.4195 44.338 21.4195 44.0707H20.8195ZM20.434 44.0101C20.5681 43.9539 20.6688 43.912 20.7521 43.8859C20.8416 43.8579 20.8643 43.8641 20.8541 43.8621C20.8425 43.8597 20.8241 43.8527 20.807 43.838C20.7914 43.8245 20.7886 43.8146 20.7919 43.8222C20.8019 43.8454 20.8195 43.9147 20.8195 44.0707H21.4195C21.4195 43.89 21.4019 43.7217 21.3428 43.5846C21.2747 43.4268 21.1498 43.3097 20.9729 43.274C20.8273 43.2445 20.6821 43.2791 20.5727 43.3134C20.457 43.3496 20.3277 43.4041 20.2021 43.4567L20.434 44.0101ZM19.2756 44.3675C19.7485 44.2986 20.1453 44.1311 20.434 44.0101L20.2021 43.4567C19.9101 43.5791 19.5777 43.7172 19.1891 43.7738L19.2756 44.3675ZM17.6768 41.4583C17.3792 41.4962 17.3792 41.4963 17.3792 41.4963C17.3792 41.4964 17.3792 41.4965 17.3792 41.4966C17.3792 41.4967 17.3793 41.4969 17.3793 41.4972C17.3794 41.4977 17.3794 41.4984 17.3795 41.4992C17.3798 41.5009 17.3801 41.5033 17.3805 41.5062C17.3813 41.5122 17.3825 41.5208 17.384 41.5317C17.3871 41.5536 17.3918 41.5851 17.398 41.6248C17.4106 41.7041 17.4299 41.8163 17.4568 41.9503C17.5104 42.2169 17.5956 42.5747 17.7214 42.9301C17.8454 43.2809 18.0172 43.6532 18.2545 43.9311C18.4962 44.2142 18.8377 44.4313 19.2756 44.3675L19.1891 43.7738C19.0265 43.7975 18.8733 43.7318 18.7108 43.5415C18.5438 43.3459 18.4017 43.0542 18.287 42.73C18.174 42.4105 18.0954 42.0825 18.045 41.8319C18.02 41.7073 18.0021 41.6032 17.9906 41.5307C17.9849 41.4945 17.9807 41.4663 17.9781 41.4474C17.9767 41.438 17.9758 41.4309 17.9751 41.4264C17.9748 41.4241 17.9746 41.4224 17.9745 41.4215C17.9744 41.421 17.9744 41.4206 17.9744 41.4205C17.9743 41.4204 17.9743 41.4203 17.9743 41.4203C17.9743 41.4203 17.9743 41.4204 17.9743 41.4204C17.9744 41.4204 17.9744 41.4205 17.6768 41.4583ZM20.3907 38.2626L17.4626 41.2483L17.8909 41.6684L20.819 38.6828L20.3907 38.2626ZM24.3793 39.2223C24.1604 39.2223 23.8256 39.1646 23.4266 39.0669C23.0341 38.9709 22.6019 38.842 22.198 38.7119C21.7947 38.5821 21.4227 38.4521 21.1514 38.3544C21.0159 38.3056 20.9057 38.265 20.8295 38.2367C20.7914 38.2225 20.7619 38.2114 20.7419 38.2038C20.7319 38.2001 20.7244 38.1972 20.7193 38.1953C20.7168 38.1943 20.7149 38.1936 20.7137 38.1931C20.7131 38.1929 20.7126 38.1927 20.7124 38.1926C20.7122 38.1926 20.7121 38.1925 20.7121 38.1925C20.712 38.1925 20.712 38.1925 20.712 38.1925C20.712 38.1925 20.712 38.1925 20.6048 38.4727C20.4977 38.7529 20.4977 38.7529 20.4978 38.7529C20.4978 38.7529 20.4978 38.753 20.4979 38.753C20.498 38.753 20.4982 38.7531 20.4983 38.7532C20.4987 38.7533 20.4993 38.7535 20.5 38.7538C20.5014 38.7543 20.5035 38.7551 20.5062 38.7561C20.5116 38.7582 20.5196 38.7612 20.5299 38.7651C20.5507 38.773 20.5811 38.7844 20.6201 38.7989C20.6981 38.828 20.8104 38.8694 20.9483 38.919C21.2238 39.0182 21.6025 39.1505 22.0141 39.2831C22.4251 39.4154 22.8722 39.549 23.2839 39.6497C23.6891 39.7489 24.0834 39.8223 24.3793 39.8223V39.2223ZM25.1687 39.9965C25.1921 39.9316 25.2268 39.8387 25.24 39.7544C25.2552 39.6571 25.2527 39.4969 25.1166 39.3727C25.0125 39.2777 24.8755 39.2521 24.7828 39.2401C24.6762 39.2264 24.5412 39.2223 24.3793 39.2223V39.8223C24.538 39.8223 24.6403 39.8267 24.706 39.8352C24.7383 39.8394 24.7524 39.8434 24.7554 39.8444C24.7586 39.8455 24.7379 39.8395 24.7122 39.8159C24.682 39.7884 24.6605 39.7512 24.6513 39.7126C24.6436 39.68 24.6476 39.6592 24.6472 39.6619C24.6468 39.6642 24.6447 39.675 24.6366 39.7002C24.6287 39.725 24.6183 39.7539 24.6041 39.7934L25.1687 39.9965ZM25.0224 40.7469C25.0224 40.4047 25.1051 40.1734 25.1687 39.9965L24.6041 39.7934C24.535 39.9857 24.4224 40.2973 24.4224 40.7469H25.0224ZM25.5288 40.852C25.3868 40.8947 25.2758 40.9279 25.182 40.9473C25.0843 40.9675 25.0423 40.9642 25.0303 40.9614C25.0286 40.961 25.0357 40.9626 25.0449 40.9698C25.054 40.977 25.0554 40.9821 25.0524 40.976C25.0427 40.9566 25.0224 40.8941 25.0224 40.7469H24.4224C24.4224 40.9303 24.4447 41.1029 24.5161 41.2452C24.5968 41.4059 24.73 41.5072 24.8931 41.5455C25.0353 41.5789 25.182 41.56 25.3036 41.5349C25.4289 41.5089 25.5676 41.4669 25.7018 41.4264L25.5288 40.852ZM26.7812 40.6218C26.2869 40.6218 25.8498 40.7552 25.5288 40.852L25.7018 41.4264C26.0294 41.3278 26.3869 41.2218 26.7812 41.2218V40.6218ZM30.8879 42.7317C31.0465 42.477 31.0464 42.477 31.0464 42.477C31.0464 42.4769 31.0463 42.4769 31.0463 42.4769C31.0461 42.4768 31.046 42.4767 31.0458 42.4766C31.0453 42.4763 31.0448 42.4759 31.044 42.4755C31.0425 42.4745 31.0402 42.4731 31.0373 42.4714C31.0316 42.4678 31.0231 42.4625 31.012 42.4557C30.9899 42.4421 30.9575 42.4223 30.916 42.3972C30.8329 42.347 30.7133 42.2754 30.5661 42.1897C30.272 42.0183 29.8666 41.7894 29.4225 41.5602C28.9793 41.3314 28.4927 41.0997 28.0372 40.9246C27.5909 40.753 27.1402 40.6218 26.7812 40.6218V41.2218C27.0226 41.2218 27.3855 41.3169 27.8218 41.4846C28.2489 41.6488 28.714 41.8696 29.1473 42.0933C29.5797 42.3165 29.9758 42.5401 30.264 42.7081C30.408 42.792 30.5248 42.8618 30.6054 42.9106C30.6457 42.9349 30.6769 42.954 30.6979 42.9669C30.7084 42.9734 30.7164 42.9783 30.7217 42.9816C30.7243 42.9832 30.7263 42.9844 30.7275 42.9852C30.7282 42.9856 30.7286 42.9859 30.7289 42.9861C30.7291 42.9862 30.7292 42.9862 30.7292 42.9863C30.7293 42.9863 30.7293 42.9863 30.7293 42.9863C30.7293 42.9863 30.7293 42.9863 30.8879 42.7317ZM34.3818 35.4273C34.2613 35.919 33.9727 36.6091 33.595 37.3829C33.2199 38.1514 32.7663 38.9838 32.3269 39.7538C31.8879 40.5233 31.4646 41.2278 31.1511 41.7401C30.9943 41.9962 30.8651 42.2041 30.7751 42.3478C30.7301 42.4197 30.695 42.4755 30.6711 42.5133C30.6592 42.5321 30.6501 42.5465 30.644 42.5561C30.6409 42.5609 30.6386 42.5646 30.6371 42.567C30.6363 42.5682 30.6358 42.5691 30.6354 42.5696C30.6352 42.5699 30.6351 42.5702 30.635 42.5703C30.6349 42.5704 30.6349 42.5704 30.6349 42.5704C30.6349 42.5705 30.6349 42.5705 30.8879 42.7317C31.1409 42.8929 31.1409 42.8928 31.1409 42.8928C31.141 42.8927 31.141 42.8926 31.1411 42.8926C31.1412 42.8924 31.1413 42.8921 31.1416 42.8918C31.142 42.8911 31.1426 42.8902 31.1434 42.8889C31.145 42.8863 31.1474 42.8826 31.1506 42.8776C31.1569 42.8677 31.1662 42.853 31.1783 42.8337C31.2026 42.7953 31.2382 42.7388 31.2837 42.6661C31.3746 42.5209 31.5049 42.3113 31.6628 42.0533C31.9786 41.5375 32.4051 40.8274 32.8481 40.0511C33.2907 39.2753 33.7513 38.4306 34.1342 37.6461C34.5145 36.8669 34.8277 36.1282 34.9645 35.5702L34.3818 35.4273ZM38.9744 33.3995C38.9744 33.0995 38.9744 33.0995 38.9742 33.0995C38.9742 33.0995 38.9741 33.0995 38.9739 33.0995C38.9737 33.0995 38.9734 33.0995 38.9731 33.0995C38.9724 33.0995 38.9715 33.0995 38.9704 33.0995C38.9681 33.0996 38.9649 33.0996 38.9609 33.0996C38.9528 33.0997 38.9412 33.0998 38.9263 33.1001C38.8965 33.1006 38.8535 33.1017 38.799 33.1039C38.6901 33.1081 38.535 33.1166 38.3478 33.1336C37.9743 33.1673 37.4676 33.235 36.9414 33.3716C35.9211 33.6364 34.6828 34.1995 34.3818 35.4273L34.9645 35.5702C35.1782 34.6988 36.0906 34.2123 37.0922 33.9523C37.577 33.8265 38.0492 33.763 38.4017 33.7311C38.5775 33.7152 38.7223 33.7073 38.8225 33.7034C38.8726 33.7014 38.9114 33.7005 38.9373 33.7C38.9503 33.6998 38.96 33.6996 38.9662 33.6996C38.9694 33.6996 38.9716 33.6995 38.973 33.6995C38.9737 33.6995 38.9742 33.6995 38.9744 33.6995C38.9745 33.6995 38.9746 33.6995 38.9746 33.6995C38.9746 33.6995 38.9746 33.6995 38.9746 33.6995C38.9745 33.6995 38.9744 33.6995 38.9744 33.3995ZM39.6038 33.5138L39.1602 33.164L38.7887 33.6351L39.2323 33.9849L39.6038 33.5138ZM40.7469 33.4494H39.418V34.0494H40.7469V33.4494ZM42.99 29.2269L40.4865 33.6003L41.0072 33.8984L43.5108 29.525L42.99 29.2269ZM46.7871 29.076H43.2504V29.676H46.7871V29.076ZM48.8432 33.278L47.0614 29.2545L46.5128 29.4975L48.2946 33.521L48.8432 33.278ZM52.3312 33.0995H48.5689V33.6995H52.3312V33.0995ZM52.6307 33.3826L52.6307 33.3825L52.0317 33.4165L52.0317 33.4166L52.6307 33.3826ZM52.3218 33.0997L52.3206 33.0998L52.3418 33.6994L52.343 33.6993L52.3218 33.0997ZM56.9251 35.4273C56.624 34.1995 55.3858 33.6364 54.3654 33.3716C53.8392 33.235 53.3326 33.1673 52.9591 33.1336C52.7719 33.1166 52.6168 33.1081 52.5079 33.1039C52.4534 33.1017 52.4104 33.1006 52.3806 33.1001C52.3657 33.0998 52.3541 33.0997 52.346 33.0996C52.3419 33.0996 52.3388 33.0996 52.3365 33.0995C52.3354 33.0995 52.3345 33.0995 52.3338 33.0995C52.3334 33.0995 52.3332 33.0995 52.3329 33.0995C52.3328 33.0995 52.3327 33.0995 52.3326 33.0995C52.3325 33.0995 52.3324 33.0995 52.3324 33.3995C52.3324 33.6995 52.3324 33.6995 52.3323 33.6995C52.3323 33.6995 52.3323 33.6995 52.3323 33.6995C52.3323 33.6995 52.3324 33.6995 52.3325 33.6995C52.3327 33.6995 52.3332 33.6995 52.3339 33.6995C52.3352 33.6995 52.3375 33.6996 52.3406 33.6996C52.3469 33.6996 52.3566 33.6998 52.3696 33.7C52.3955 33.7005 52.4343 33.7014 52.4844 33.7034C52.5846 33.7073 52.7294 33.7152 52.9051 33.7311C53.2577 33.763 53.7299 33.8265 54.2147 33.9523C55.2163 34.2123 56.1287 34.6988 56.3423 35.5702L56.9251 35.4273ZM60.2463 42.7317C60.5031 42.5767 60.5031 42.5767 60.5031 42.5766C60.5031 42.5766 60.5031 42.5766 60.503 42.5765C60.5029 42.5763 60.5028 42.5761 60.5026 42.5758C60.5023 42.5752 60.5017 42.5744 60.501 42.5732C60.4996 42.5708 60.4974 42.5671 60.4945 42.5623C60.4887 42.5527 60.4801 42.5383 60.4688 42.5194C60.4461 42.4816 60.4128 42.4258 60.3702 42.3539C60.2849 42.2101 60.1623 42.0022 60.0136 41.7461C59.7162 41.2337 59.3143 40.529 58.8967 39.7594C58.0535 38.2055 57.1715 36.4323 56.9251 35.4273L56.3423 35.5702C56.6106 36.6645 57.5349 38.5077 58.3693 40.0455C58.7905 40.8217 59.1953 41.5316 59.4948 42.0474C59.6445 42.3053 59.768 42.5149 59.8541 42.66C59.8972 42.7326 59.931 42.7892 59.954 42.8276C59.9655 42.8468 59.9743 42.8615 59.9803 42.8714C59.9832 42.8764 59.9855 42.8802 59.987 42.8827C59.9878 42.884 59.9884 42.885 59.9888 42.8856C59.989 42.8859 59.9891 42.8862 59.9892 42.8864C59.9893 42.8865 59.9893 42.8865 59.9894 42.8866C59.9894 42.8866 59.9894 42.8867 60.2463 42.7317ZM64.5257 40.6218C64.168 40.6218 63.7072 40.7523 63.2461 40.9233C62.7752 41.098 62.2677 41.329 61.8032 41.5575C61.3379 41.7865 60.9112 42.015 60.6011 42.1862C60.4459 42.2719 60.3196 42.3433 60.232 42.3935C60.1881 42.4186 60.1539 42.4383 60.1306 42.4519C60.1189 42.4586 60.1099 42.4639 60.1038 42.4674C60.1008 42.4692 60.0984 42.4706 60.0968 42.4715C60.096 42.472 60.0954 42.4724 60.095 42.4726C60.0948 42.4727 60.0946 42.4728 60.0945 42.4729C60.0944 42.4729 60.0943 42.473 60.0943 42.473C60.0943 42.473 60.0942 42.473 60.2463 42.7317C60.3983 42.9903 60.3983 42.9903 60.3983 42.9903C60.3983 42.9903 60.3983 42.9903 60.3984 42.9902C60.3984 42.9902 60.3986 42.9901 60.3987 42.9901C60.399 42.9899 60.3995 42.9896 60.4002 42.9892C60.4016 42.9884 60.4037 42.9871 60.4065 42.9855C60.4121 42.9822 60.4206 42.9773 60.4317 42.9708C60.4541 42.9578 60.4872 42.9387 60.5299 42.9143C60.6152 42.8655 60.7388 42.7955 60.891 42.7115C61.1957 42.5434 61.6136 42.3195 62.0681 42.0959C62.5233 41.872 63.0106 41.6506 63.4547 41.4859C63.9086 41.3175 64.2829 41.2218 64.5257 41.2218V40.6218ZM65.7781 40.852C65.457 40.7552 65.02 40.6218 64.5257 40.6218V41.2218C64.9199 41.2218 65.2775 41.3278 65.605 41.4264L65.7781 40.852ZM66.2845 40.7469C66.2845 40.8941 66.2642 40.9566 66.2545 40.976C66.2514 40.9821 66.2528 40.977 66.262 40.9698C66.2712 40.9626 66.2783 40.961 66.2765 40.9614C66.2645 40.9642 66.2226 40.9675 66.1249 40.9473C66.031 40.9279 65.9201 40.8947 65.7781 40.852L65.605 41.4264C65.7392 41.4669 65.878 41.5089 66.0033 41.5349C66.1248 41.56 66.2716 41.5789 66.4137 41.5455C66.5769 41.5072 66.7101 41.4059 66.7907 41.2452C66.8621 41.1029 66.8845 40.9303 66.8845 40.7469H66.2845ZM66.1382 39.9965C66.2018 40.1734 66.2845 40.4047 66.2845 40.7469H66.8845C66.8845 40.2973 66.7719 39.9857 66.7028 39.7935L66.1382 39.9965ZM66.9276 39.2223C66.7657 39.2223 66.6306 39.2264 66.524 39.2402C66.4314 39.2521 66.2944 39.2777 66.1903 39.3727C66.0542 39.4969 66.0517 39.6571 66.0669 39.7544C66.08 39.8387 66.1148 39.9316 66.1382 39.9965L66.7028 39.7935C66.6886 39.7539 66.6782 39.725 66.6703 39.7002C66.6622 39.675 66.6601 39.6642 66.6597 39.6619C66.6593 39.6592 66.6633 39.68 66.6556 39.7126C66.6464 39.7512 66.6249 39.7884 66.5947 39.8159C66.569 39.8395 66.5482 39.8455 66.5515 39.8444C66.5544 39.8434 66.5686 39.8394 66.6009 39.8352C66.6666 39.8267 66.7689 39.8223 66.9276 39.8223V39.2223ZM70.702 38.4727C70.5949 38.1925 70.5949 38.1925 70.5949 38.1925C70.5949 38.1925 70.5949 38.1925 70.5948 38.1925C70.5948 38.1925 70.5947 38.1926 70.5945 38.1926C70.5942 38.1927 70.5938 38.1929 70.5932 38.1931C70.5919 38.1936 70.5901 38.1943 70.5875 38.1953C70.5825 38.1972 70.5749 38.2001 70.565 38.2038C70.545 38.2114 70.5154 38.2225 70.4774 38.2367C70.4012 38.265 70.291 38.3056 70.1554 38.3544C69.8842 38.4521 69.5122 38.5821 69.1089 38.7119C68.705 38.842 68.2728 38.9709 67.8803 39.0669C67.4813 39.1646 67.1465 39.2223 66.9276 39.2223V39.8223C67.2234 39.8223 67.6178 39.7489 68.0229 39.6497C68.4347 39.549 68.8818 39.4154 69.2928 39.2831C69.7044 39.1505 70.083 39.0182 70.3586 38.919C70.4965 38.8694 70.6088 38.828 70.6868 38.7989C70.7257 38.7844 70.7562 38.773 70.7769 38.7651C70.7873 38.7612 70.7953 38.7582 70.8007 38.7561C70.8034 38.7551 70.8055 38.7543 70.8069 38.7538C70.8076 38.7535 70.8082 38.7533 70.8085 38.7532C70.8087 38.7531 70.8089 38.753 70.809 38.753C70.809 38.753 70.8091 38.7529 70.8091 38.7529C70.8091 38.7529 70.8092 38.7529 70.702 38.4727ZM73.8443 41.2483L70.9162 38.2626L70.4878 38.6828L73.4159 41.6684L73.8443 41.2483ZM72.0313 44.3675C72.4691 44.4313 72.8106 44.2142 73.0524 43.9311C73.2897 43.6532 73.4614 43.2809 73.5855 42.9301C73.7113 42.5747 73.7964 42.2169 73.85 41.9503C73.877 41.8164 73.8962 41.7041 73.9088 41.6248C73.9151 41.5851 73.9197 41.5536 73.9229 41.5317C73.9244 41.5208 73.9256 41.5122 73.9264 41.5062C73.9268 41.5033 73.9271 41.5009 73.9273 41.4992C73.9274 41.4984 73.9275 41.4977 73.9276 41.4972C73.9276 41.4969 73.9276 41.4967 73.9277 41.4966C73.9277 41.4965 73.9277 41.4964 73.9277 41.4963C73.9277 41.4963 73.9277 41.4962 73.6301 41.4583C73.3325 41.4205 73.3325 41.4204 73.3325 41.4204L73.3325 41.4203C73.3325 41.4203 73.3325 41.4204 73.3325 41.4205C73.3325 41.4206 73.3324 41.421 73.3324 41.4215C73.3322 41.4225 73.332 41.4241 73.3317 41.4264C73.3311 41.4309 73.3301 41.438 73.3288 41.4474C73.3261 41.4663 73.322 41.4945 73.3162 41.5307C73.3047 41.6032 73.2869 41.7073 73.2618 41.8319C73.2114 42.0825 73.1329 42.4106 73.0199 42.73C72.9052 43.0543 72.7631 43.346 72.5961 43.5415C72.4336 43.7318 72.2804 43.7975 72.1178 43.7738L72.0313 44.3675ZM70.8728 44.0101C71.1616 44.1311 71.5583 44.2986 72.0313 44.3675L72.1178 43.7738C71.7292 43.7172 71.3968 43.5791 71.1047 43.4567L70.8728 44.0101ZM70.4873 44.0707C70.4873 43.9147 70.505 43.8454 70.515 43.8222C70.5183 43.8146 70.5155 43.8245 70.4998 43.8381C70.4828 43.8527 70.4643 43.8597 70.4528 43.8621C70.4426 43.8641 70.4653 43.8579 70.5548 43.8859C70.6381 43.912 70.7388 43.9539 70.8728 44.0101L71.1047 43.4567C70.9792 43.4041 70.8499 43.3496 70.7342 43.3134C70.6248 43.2791 70.4795 43.2445 70.3339 43.274C70.1571 43.3097 70.0321 43.4268 69.9641 43.5846C69.9049 43.7217 69.8873 43.89 69.8873 44.0707H70.4873ZM70.5588 44.8202C70.5207 44.5395 70.4873 44.2895 70.4873 44.0707H69.8873C69.8873 44.338 69.9276 44.6306 69.9643 44.9009L70.5588 44.8202ZM69.3633 47.1677C69.6993 47.1297 69.9727 47.0296 70.1815 46.861C70.3929 46.6903 70.5134 46.4695 70.5766 46.2356C70.6959 45.7935 70.6181 45.2573 70.5588 44.8202L69.9643 44.9009C70.029 45.3777 70.0784 45.7789 69.9973 46.0792C69.9603 46.2165 69.8987 46.3182 69.8047 46.3941C69.7082 46.472 69.5529 46.5424 69.2957 46.5715L69.3633 47.1677ZM57.4915 49.6686C57.5656 49.9593 57.5657 49.9593 57.5658 49.9593C57.5658 49.9593 57.566 49.9592 57.5661 49.9592C57.5664 49.9591 57.5669 49.959 57.5675 49.9589C57.5687 49.9585 57.5706 49.9581 57.5731 49.9574C57.578 49.9562 57.5854 49.9543 57.5951 49.9518C57.6146 49.9469 57.6436 49.9395 57.6814 49.9299C57.7571 49.9106 57.8684 49.8824 58.0106 49.8463C58.2949 49.7743 58.7029 49.6711 59.1972 49.5468C60.1861 49.2982 61.5204 48.9649 62.9029 48.6261C64.2856 48.2873 65.7154 47.9433 66.8953 47.6732C68.0841 47.4011 68.9979 47.2091 69.3633 47.1677L69.2957 46.5715C68.8891 46.6176 67.9371 46.8193 66.7615 47.0883C65.5771 47.3595 64.1439 47.7043 62.7601 48.0434C61.3761 48.3825 60.0405 48.7161 59.0509 48.9649C58.5561 49.0894 58.1478 49.1926 57.8632 49.2647C57.7209 49.3008 57.6095 49.3291 57.5336 49.3484C57.4957 49.358 57.4667 49.3654 57.4471 49.3704C57.4373 49.3729 57.4299 49.3747 57.4249 49.376C57.4225 49.3766 57.4206 49.3771 57.4193 49.3774C57.4187 49.3776 57.4182 49.3777 57.4179 49.3778C57.4178 49.3778 57.4176 49.3779 57.4176 49.3779C57.4175 49.3779 57.4174 49.3779 57.4915 49.6686ZM52.287 42.4414L57.2423 49.8356L57.7408 49.5016L52.7854 42.1074L52.287 42.4414ZM51.7207 52.0992C51.8397 52.0505 51.9267 51.9629 51.9896 51.8775C52.0536 51.7905 52.1066 51.6868 52.1517 51.5766C52.242 51.3565 52.3166 51.0715 52.38 50.7463C52.5074 50.0931 52.5992 49.2258 52.6658 48.2693C52.7992 46.3532 52.8335 44.0393 52.8362 42.2748L52.2362 42.2739C52.2335 44.0348 52.1992 46.3324 52.0673 48.2276C52.0012 49.1767 51.9113 50.0149 51.7911 50.6314C51.7307 50.941 51.6651 51.1819 51.5965 51.3491C51.5623 51.4326 51.5312 51.488 51.5064 51.5218C51.4803 51.5572 51.4735 51.5521 51.4935 51.5439L51.7207 52.0992ZM51.0471 52.3425C51.2497 52.2746 51.4821 52.1968 51.7207 52.0992L51.4935 51.5439C51.2756 51.6331 51.0611 51.7051 50.8565 51.7736L51.0471 52.3425ZM50.6703 53.1322C50.4722 52.9301 50.3816 52.7955 50.3474 52.7119C50.3318 52.6737 50.3327 52.6574 50.3328 52.6569C50.3328 52.6566 50.3327 52.6577 50.3321 52.6593C50.3316 52.6608 50.3315 52.6603 50.3334 52.6575C50.3466 52.6383 50.3951 52.5932 50.5347 52.5301C50.6674 52.4701 50.8367 52.413 51.0471 52.3425L50.8565 51.7736C50.6553 51.841 50.4538 51.9082 50.2875 51.9834C50.128 52.0555 49.9494 52.1564 49.8384 52.3186C49.7079 52.5091 49.7056 52.7275 49.792 52.9389C49.8709 53.1319 50.0275 53.3336 50.242 53.5523L50.6703 53.1322ZM50.7809 53.2448L50.6702 53.132L50.2421 53.5524L50.3528 53.6652L50.7809 53.2448ZM51.8768 56.0192C52.0041 55.758 52.0704 55.5064 52.0685 55.2552C52.0665 55.003 51.9958 54.7722 51.8802 54.5532C51.6588 54.134 51.2482 53.7204 50.7808 53.2447L50.3529 53.6653C50.8455 54.1666 51.1789 54.5101 51.3496 54.8334C51.43 54.9857 51.4674 55.1225 51.4685 55.2599C51.4696 55.3983 51.434 55.5583 51.3374 55.7563L51.8768 56.0192ZM48.0542 61.5642C48.3053 61.7284 48.3053 61.7284 48.3054 61.7283C48.3054 61.7283 48.3054 61.7282 48.3055 61.7282C48.3056 61.728 48.3057 61.7278 48.3059 61.7275C48.3063 61.7269 48.3068 61.7261 48.3076 61.7249C48.3091 61.7226 48.3113 61.7192 48.3143 61.7147C48.3201 61.7057 48.3289 61.6924 48.3402 61.6749C48.363 61.64 48.3965 61.5888 48.4392 61.5232C48.5246 61.392 48.6472 61.2036 48.7957 60.9745C49.0927 60.5165 49.4937 59.8957 49.9092 59.2449C50.7337 57.9538 51.6348 56.5156 51.8768 56.0192L51.3375 55.7563C51.1147 56.2131 50.2393 57.6132 49.4036 58.922C48.989 59.5712 48.5888 60.1908 48.2923 60.6481C48.144 60.8768 48.0217 61.0648 47.9365 61.1957C47.8938 61.2611 47.8605 61.3122 47.8378 61.347C47.8265 61.3644 47.8178 61.3776 47.8119 61.3866C47.809 61.391 47.8068 61.3944 47.8053 61.3967C47.8046 61.3978 47.804 61.3987 47.8037 61.3992C47.8035 61.3995 47.8034 61.3997 47.8033 61.3999C47.8032 61.3999 47.8032 61.4 47.8032 61.4C47.8031 61.4 47.8031 61.4001 48.0542 61.5642Z" fill="#000F3E" mask="url(#path-17-inside-1_1_2361)"/>
<path d="M44.6079 28.4259C47.6317 28.4259 50.083 25.9264 50.083 22.8432C50.083 19.7599 47.6317 17.2605 44.6079 17.2605C41.5841 17.2605 39.1328 19.7599 39.1328 22.8432C39.1328 25.9264 41.5841 28.4259 44.6079 28.4259Z" fill="#FBB9B9"/>
<path d="M50.5832 22.0004C49.9396 22.7948 48.9821 22.7534 48.1307 22.6267C47.862 22.5876 47.5932 22.5438 47.3245 22.4932C47.2771 22.3389 47.2229 22.1846 47.1619 22.0349C46.9099 21.4099 46.5331 20.8453 46.0553 20.377C46.1056 20.9893 46.0591 21.6058 45.9176 22.203C45.4185 22.0856 44.9216 21.9543 44.4271 21.8093C43.9895 21.7367 43.5959 21.4955 43.3278 21.1356C43.0597 20.7756 42.9374 20.3243 42.9863 19.875C42.2749 20.4277 41.5003 20.9066 40.6873 20.9158C40.229 20.9037 39.7866 20.7422 39.4249 20.455C39.0632 20.1679 38.8012 19.7701 38.6774 19.3201C38.4561 18.6292 38.49 17.8325 38.5803 17.0864C38.6887 16.1999 38.9326 15.2258 39.5197 14.8689C39.9917 14.5788 40.536 14.786 41.0215 15.0209C42.0912 15.5444 43.1053 16.1786 44.0477 16.9137L44.059 17.1555C44.3029 15.965 45.1091 15.0462 45.9876 14.9541C46.5792 14.8943 47.1574 15.1729 47.7152 15.4538C48.4442 15.7818 49.1222 16.217 49.7273 16.7456C50.411 17.3797 50.8858 18.2137 51.0869 19.1335C51.2969 20.1306 51.1388 21.3142 50.5832 22.0004Z" fill="#000F3E"/>
<path d="M45.1617 14.2527C45.2179 14.2575 45.08 14.2253 45.1247 14.2445C45.1028 14.2342 45.0817 14.2222 45.0616 14.2084C45.0582 14.2062 45.0137 14.1695 45.0428 14.1951C44.9758 14.1419 44.9253 14.0701 44.8975 13.9883C44.8353 13.7897 44.8064 13.5817 44.8119 13.3733C44.823 13.0993 44.7772 12.826 44.6774 12.5713C44.6478 12.5023 44.6027 12.4415 44.5458 12.3936C44.4888 12.3458 44.4215 12.3123 44.3495 12.2959C44.2774 12.2795 44.2026 12.2807 44.1311 12.2993C44.0596 12.318 43.9933 12.3535 43.9378 12.4031C43.753 12.5879 43.7384 12.9001 43.7253 13.1483C43.7112 13.4061 43.738 13.6645 43.8046 13.9135C43.9192 14.323 44.1482 14.6897 44.4636 14.9689C44.8278 15.2941 45.2852 15.491 45.7679 15.5303C45.8342 15.5288 45.8987 15.5076 45.9534 15.4694C46.0082 15.4312 46.0508 15.3776 46.0762 15.3151C46.1016 15.2526 46.1086 15.1839 46.0964 15.1175C46.0842 15.051 46.0533 14.9895 46.0074 14.9407L45.4012 14.3539C45.3377 14.2891 45.2516 14.2527 45.1617 14.2527C45.0719 14.2527 44.9857 14.2891 44.9222 14.3539C44.8586 14.4187 44.823 14.5065 44.823 14.5981C44.823 14.6897 44.8586 14.7776 44.9222 14.8424L45.5283 15.4291L45.7679 14.8395C45.6678 14.8303 45.5691 14.8097 45.4736 14.7782C45.37 14.7488 45.271 14.7046 45.1796 14.6468C45.09 14.5968 45.0061 14.5369 44.9292 14.4684C44.88 14.4243 44.8331 14.3777 44.7886 14.3288C44.7724 14.311 44.7565 14.2929 44.741 14.2746C44.7421 14.2759 44.6772 14.1928 44.7051 14.2308C44.635 14.1331 44.5741 14.0289 44.523 13.9196C44.505 13.8809 44.4901 13.8408 44.4785 13.7996C44.4571 13.7319 44.4395 13.6629 44.426 13.5931C44.4001 13.4464 44.3924 13.297 44.4028 13.1483C44.4057 13.0853 44.4119 13.0224 44.4213 12.96C44.4298 12.9271 44.4361 12.8937 44.4402 12.8599C44.4414 12.776 44.429 12.9047 44.3861 12.9242L44.2151 12.9714C44.1872 12.9691 44.1603 12.9604 44.1362 12.946C44.112 12.9316 44.0914 12.9119 44.0758 12.8882C44.0687 12.8594 44.0707 12.8645 44.0818 12.9036C44.0947 12.9494 44.1046 12.9961 44.1117 13.0432C44.1247 13.1527 44.1323 13.2629 44.1344 13.3733C44.1365 13.607 44.1632 13.8399 44.2138 14.0679C44.2613 14.2971 44.3785 14.5051 44.5487 14.6623C44.7189 14.8195 44.9334 14.9179 45.1617 14.9435C45.2513 14.9428 45.3371 14.9062 45.4004 14.8416C45.4638 14.777 45.4997 14.6895 45.5004 14.5981C45.4987 14.5071 45.4624 14.4203 45.3993 14.3559C45.3361 14.2915 45.251 14.2545 45.1617 14.2527Z" fill="#000F3E"/>
<path d="M73.2591 36.6029L73.2666 36.6243C73.3141 36.7609 73.4126 36.8717 73.5393 36.9334C73.6658 36.995 73.8109 37.0028 73.943 36.9554L73.2591 36.6029ZM73.2591 36.6029L73.2457 36.5846C71.3991 34.0802 70.335 31.285 70.3001 28.0992L70.2998 28.0749L70.2919 28.0519C70.2446 27.9151 70.2525 27.7647 70.3137 27.634C70.3748 27.5034 70.4837 27.4038 70.6158 27.3559C70.6158 27.3559 70.6159 27.3559 70.6159 27.3559L76.9652 25.0652C76.9652 25.0652 76.9652 25.0652 76.9653 25.0652C77.0974 25.0177 77.2424 25.0256 77.369 25.0872C77.4957 25.1488 77.5941 25.2596 77.6417 25.3962C77.6417 25.3962 77.6417 25.3963 77.6417 25.3963L80.6164 33.9687L73.2591 36.6029ZM80.2924 34.6647L73.9431 36.9553L80.6165 33.9689C80.6637 34.1056 80.6558 34.2559 80.5946 34.3865C80.5335 34.5172 80.4245 34.6168 80.2924 34.6647C80.2924 34.6647 80.2924 34.6647 80.2924 34.6647Z" fill="#FFE8BE" stroke="#000F3E" stroke-width="0.3"/>
<path d="M77.5325 30.1043L73.2818 31.6514C73.2141 31.6761 73.1397 31.6723 73.0748 31.6409C73.0099 31.6096 72.9598 31.5532 72.9357 31.4842C72.9115 31.4152 72.9153 31.3393 72.946 31.2731C72.9768 31.207 73.032 31.1559 73.0997 31.1313L77.3505 29.5842C77.3839 29.572 77.4195 29.5667 77.455 29.5685C77.4905 29.5703 77.5253 29.5792 77.5575 29.5947C77.5896 29.6102 77.6184 29.6321 77.6423 29.659C77.6662 29.6858 77.6846 29.7173 77.6966 29.7514C77.7085 29.7856 77.7137 29.8218 77.712 29.858C77.7102 29.8942 77.7015 29.9297 77.6862 29.9625C77.671 29.9953 77.6496 30.0247 77.6232 30.049C77.5969 30.0733 77.566 30.0921 77.5325 30.1043Z" fill="#FFD699"/>
<path d="M73.7164 29.8848L72.7812 30.2252C72.7477 30.2374 72.7122 30.2428 72.6767 30.2411C72.6412 30.2393 72.6064 30.2304 72.5742 30.2149C72.5421 30.1994 72.5132 30.1776 72.4893 30.1508C72.4654 30.1239 72.4469 30.0925 72.4349 30.0584C72.4229 30.0243 72.4177 29.9881 72.4194 29.9518C72.4211 29.9156 72.4298 29.8801 72.445 29.8473C72.4602 29.8145 72.4816 29.7851 72.5079 29.7607C72.5343 29.7364 72.565 29.7175 72.5985 29.7053L72.5991 29.7051L73.5343 29.3647C73.6019 29.3402 73.6764 29.344 73.7412 29.3754C73.806 29.4068 73.856 29.4631 73.8802 29.5321C73.9043 29.601 73.9006 29.6768 73.8699 29.743C73.8392 29.8091 73.784 29.8602 73.7164 29.8848Z" fill="#FFD699"/>
<path d="M78.3336 32.3908L74.0829 33.938C74.0152 33.9627 73.9408 33.959 73.8758 33.9277C73.8109 33.8964 73.7608 33.8401 73.7366 33.7712C73.7123 33.7022 73.716 33.6263 73.7467 33.5601C73.7773 33.4939 73.8325 33.4428 73.9002 33.4181L73.9008 33.4179L78.1515 31.8707C78.2191 31.8462 78.2935 31.85 78.3584 31.8814C78.4232 31.9128 78.4732 31.9691 78.4973 32.038C78.5215 32.107 78.5178 32.1828 78.4871 32.249C78.4564 32.3151 78.4012 32.3662 78.3336 32.3908Z" fill="#FFD699"/>
<path d="M77.9323 31.2476L73.6815 32.7947C73.648 32.807 73.6125 32.8124 73.577 32.8106C73.5415 32.8088 73.5066 32.8 73.4745 32.7845C73.4423 32.769 73.4135 32.7472 73.3896 32.7203C73.3657 32.6935 73.3472 32.6621 73.3352 32.6279C73.3232 32.5938 73.3179 32.5576 73.3197 32.5214C73.3214 32.4851 73.3301 32.4496 73.3453 32.4168C73.3605 32.3841 73.3818 32.3546 73.4082 32.3303C73.4345 32.3059 73.4653 32.2871 73.4988 32.2748L73.4994 32.2746L77.7502 30.7275C77.7837 30.7153 77.8192 30.7099 77.8547 30.7116C77.8902 30.7134 77.9251 30.7223 77.9572 30.7378C77.9894 30.7533 78.0182 30.7751 78.0421 30.8019C78.066 30.8288 78.0845 30.8602 78.0965 30.8943C78.1085 30.9284 78.1138 30.9646 78.112 31.0009C78.1103 31.0371 78.1016 31.0726 78.0864 31.1054C78.0712 31.1382 78.0498 31.1676 78.0235 31.192C77.9972 31.2163 77.9664 31.2352 77.9329 31.2474L77.9323 31.2476Z" fill="#FFD699"/>
<path d="M73.5686 27.4536C74.2778 27.4536 74.8478 26.8682 74.8478 26.1522C74.8478 25.4363 74.2778 24.8509 73.5686 24.8509C72.8594 24.8509 72.2895 25.4363 72.2895 26.1522C72.2895 26.8682 72.8594 27.4536 73.5686 27.4536Z" fill="white" stroke="#000F3E" stroke-width="0.3"/>
<path d="M17.9431 7.40226L17.929 7.42007C17.8401 7.53236 17.7982 7.67656 17.8131 7.821C17.8281 7.96541 17.8985 8.09715 18.008 8.18769C18.008 8.18769 18.008 8.1877 18.0081 8.18771L23.2441 12.507L17.9431 7.40226ZM17.9431 7.40226L17.9513 7.38108M17.9431 7.40226L17.9513 7.38108M17.9513 7.38108C19.0787 4.46592 20.8583 2.07959 23.5016 0.383511L23.5225 0.370086M17.9513 7.38108L23.5225 0.370086M23.5225 0.370086L23.538 0.350629M23.5225 0.370086L23.538 0.350629M23.538 0.350629C23.6271 0.238651 23.7554 0.167957 23.8945 0.152982M23.538 0.350629L23.8945 0.152982M23.8945 0.152982C24.0336 0.138013 24.1732 0.179802 24.2828 0.269966M23.8945 0.152982L24.2828 0.269966M24.2828 0.269966C24.2828 0.26998 24.2828 0.269994 24.2828 0.270008M24.2828 0.269966L24.2828 0.270008M24.2828 0.270008L29.5189 4.58925C29.5189 4.58927 29.5189 4.58929 29.5189 4.58931C29.6284 4.67985 29.6988 4.81157 29.7138 4.95595C29.7287 5.10033 29.6868 5.24448 29.598 5.35675L24.2828 0.270008ZM29.5979 5.35689L23.9889 12.4263C23.8998 12.5383 23.7715 12.609 23.6324 12.624C23.4934 12.6389 23.3538 12.5972 23.2442 12.5071L29.5979 5.35689Z" fill="#FFE8BE" stroke="#000F3E" stroke-width="0.3"/>
<path d="M25.6095 7.72119L22.0927 4.83656C22.037 4.79059 22.0014 4.72395 21.9937 4.65125C21.9861 4.57855 22.007 4.50573 22.052 4.44876C22.0969 4.39179 22.1622 4.35532 22.2335 4.34735C22.3048 4.33938 22.3762 4.36056 22.4322 4.40625L25.9491 7.29088C26.0048 7.33685 26.0404 7.40349 26.048 7.47619C26.0557 7.54888 26.0347 7.62169 25.9898 7.67865C25.9448 7.73561 25.8796 7.77208 25.8083 7.78005C25.737 7.78803 25.6655 7.76686 25.6096 7.72118L25.6095 7.72119Z" fill="#FFD699"/>
<path d="M23.7969 4.29144L23.0232 3.65682C22.9675 3.61082 22.932 3.54419 22.9244 3.47154C22.9168 3.39888 22.9377 3.32612 22.9826 3.26919C23.0276 3.21226 23.0928 3.1758 23.164 3.1678C23.2352 3.1598 23.3067 3.18091 23.3627 3.22651L24.1364 3.86113C24.1921 3.90712 24.2276 3.97375 24.2352 4.04642C24.2428 4.11909 24.2219 4.19188 24.177 4.24883C24.132 4.30577 24.0668 4.34223 23.9956 4.35022C23.9243 4.35821 23.8529 4.33708 23.7969 4.29145L23.7969 4.29144Z" fill="#FFD699"/>
<path d="M24.1154 9.61292L20.5986 6.72829C20.5428 6.68233 20.5072 6.61568 20.4996 6.54298C20.4919 6.47028 20.5129 6.39745 20.5578 6.34048C20.6028 6.28351 20.6681 6.24704 20.7393 6.23907C20.8106 6.23111 20.8821 6.25229 20.9381 6.29798L24.4549 9.18261C24.5106 9.22861 24.5461 9.29523 24.5537 9.36789C24.5613 9.44054 24.5403 9.5133 24.4954 9.57024C24.4505 9.62717 24.3853 9.66363 24.3141 9.67163C24.2428 9.67963 24.1714 9.65852 24.1154 9.61292H24.1154Z" fill="#FFD699"/>
<path d="M24.8617 8.66715L21.3449 5.78253C21.3172 5.75987 21.294 5.73187 21.2769 5.7001C21.2597 5.66834 21.2489 5.63344 21.2449 5.5974C21.237 5.52461 21.2578 5.45159 21.3026 5.39441C21.3475 5.33722 21.4128 5.30055 21.4842 5.29246C21.5556 5.28437 21.6272 5.30553 21.6833 5.35128L21.6844 5.35221L25.2012 8.23685C25.2573 8.2826 25.2932 8.34919 25.3012 8.42198C25.3091 8.49476 25.2884 8.56778 25.2435 8.62497C25.1986 8.68216 25.1333 8.71883 25.0619 8.72692C24.9906 8.735 24.9189 8.71385 24.8629 8.6681L24.8617 8.66716V8.66715Z" fill="#FFD699"/>
<path d="M26.8391 3.51166C27.5483 3.51166 28.1183 2.92626 28.1183 2.21031C28.1183 1.49436 27.5483 0.90896 26.8391 0.90896C26.1299 0.90896 25.56 1.49436 25.56 2.21031C25.56 2.92626 26.1299 3.51166 26.8391 3.51166Z" fill="white" stroke="#000F3E" stroke-width="0.3"/>
<path d="M5.00055 41.6988L4.99309 41.6774L4.97963 41.6592C2.24055 37.9443 0.660523 33.7953 0.60872 29.0662L0.608453 29.0419L0.600494 29.0189C0.52445 28.7989 0.537108 28.5571 0.635546 28.3469C0.733924 28.1367 0.909577 27.9758 1.12313 27.8984C1.12317 27.8984 1.12322 27.8984 1.12326 27.8984L10.5148 24.5101C10.7285 24.4333 10.9633 24.446 11.1679 24.5456C11.3727 24.6452 11.5312 24.8241 11.6077 25.0438L16.0078 37.7237C16.0838 37.9437 16.0711 38.1855 15.9727 38.3958C15.8743 38.606 15.6986 38.7669 15.485 38.8442C15.485 38.8442 15.485 38.8442 15.485 38.8442L6.09344 42.2325C5.87976 42.3093 5.64499 42.2966 5.44033 42.197C5.23557 42.0974 5.07706 41.9185 5.00055 41.6988Z" fill="#FFE8BE" stroke="#000F3E" stroke-width="0.3"/>
<path d="M11.3805 32.0311L5.09299 34.3196C5.0434 34.3378 4.99078 34.3458 4.93814 34.3433C4.8855 34.3407 4.83386 34.3276 4.7862 34.3047C4.73854 34.2817 4.69579 34.2494 4.6604 34.2096C4.62501 34.1698 4.59767 34.1232 4.57995 34.0726C4.56223 34.022 4.55449 33.9683 4.55715 33.9147C4.55982 33.861 4.57285 33.8084 4.59549 33.7598C4.61813 33.7113 4.64994 33.6678 4.68909 33.6319C4.72825 33.5959 4.77398 33.5681 4.82367 33.5502L11.1112 31.2618C11.1607 31.2438 11.2132 31.2359 11.2658 31.2385C11.3183 31.2412 11.3698 31.2544 11.4174 31.2774C11.4649 31.3004 11.5075 31.3326 11.5428 31.3724C11.5781 31.4122 11.6054 31.4587 11.6231 31.5092C11.6408 31.5597 11.6485 31.6133 11.6459 31.6668C11.6433 31.7204 11.6303 31.7729 11.6078 31.8214C11.5853 31.8699 11.5536 31.9133 11.5146 31.9493C11.4756 31.9853 11.43 32.0131 11.3805 32.0311Z" fill="#FFD699"/>
<path d="M5.73768 31.7065L4.35443 32.21C4.25446 32.246 4.14456 32.2402 4.04881 32.1937C3.95306 32.1473 3.87927 32.064 3.84363 31.9622C3.80798 31.8604 3.81338 31.7483 3.85865 31.6505C3.90391 31.5528 3.98535 31.4773 4.08511 31.4406L5.46835 30.9372C5.56831 30.9011 5.67822 30.907 5.77397 30.9534C5.86972 30.9999 5.94351 31.0831 5.97915 31.185C6.0148 31.2868 6.00939 31.3988 5.96413 31.4966C5.91886 31.5944 5.83743 31.6699 5.73768 31.7065Z" fill="#FFD699"/>
<path d="M12.5649 35.4133L6.27741 37.7018C6.17736 37.7382 6.06722 37.7326 5.97122 37.6862C5.87521 37.6398 5.80122 37.5564 5.7655 37.4544C5.72979 37.3524 5.73528 37.2401 5.78077 37.1422C5.82627 37.0443 5.90804 36.9689 6.0081 36.9324L12.2956 34.644C12.3451 34.626 12.3977 34.6181 12.4502 34.6207C12.5027 34.6234 12.5543 34.6366 12.6018 34.6596C12.6493 34.6826 12.692 34.7148 12.7273 34.7546C12.7626 34.7944 12.7898 34.8409 12.8075 34.8914C12.8252 34.9419 12.8329 34.9955 12.8303 35.049C12.8277 35.1026 12.8148 35.1551 12.7922 35.2036C12.7697 35.2521 12.738 35.2955 12.699 35.3315C12.66 35.3675 12.6145 35.3953 12.5649 35.4133Z" fill="#FFD699"/>
<path d="M11.9731 33.7222L5.68562 36.0106C5.63608 36.0286 5.58354 36.0365 5.531 36.0339C5.47846 36.0312 5.42696 36.018 5.37942 35.995C5.33189 35.9721 5.28925 35.9398 5.25396 35.9C5.21866 35.8602 5.19139 35.8138 5.17371 35.7632C5.15602 35.7127 5.14827 35.6591 5.15089 35.6056C5.15351 35.552 5.16645 35.4995 5.18898 35.451C5.21151 35.4026 5.24317 35.3591 5.28218 35.3231C5.32118 35.2871 5.36676 35.2593 5.4163 35.2413L11.7038 32.9529C11.7533 32.9348 11.8059 32.9269 11.8584 32.9296C11.911 32.9323 11.9625 32.9455 12.01 32.9684C12.0575 32.9914 12.1002 33.0237 12.1355 33.0635C12.1708 33.1032 12.198 33.1497 12.2157 33.2002C12.2334 33.2507 12.2411 33.3043 12.2385 33.3579C12.2359 33.4114 12.223 33.464 12.2004 33.5124C12.1779 33.5609 12.1462 33.6044 12.1072 33.6404C12.0682 33.6763 12.0227 33.7042 11.9731 33.7222Z" fill="#FFD699"/>
<path d="M5.51882 28.0383C6.52682 28.0383 7.33901 27.2059 7.33901 26.1853C7.33901 25.1647 6.52682 24.3323 5.51882 24.3323C4.51082 24.3323 3.69863 25.1647 3.69863 26.1853C3.69863 27.2059 4.51082 28.0383 5.51882 28.0383Z" fill="white" stroke="#000F3E" stroke-width="0.3"/>
<path d="M83.7475 51.6603C83.8578 51.2163 83.4399 50.7253 82.814 50.5636C82.1882 50.4019 81.5914 50.6307 81.481 51.0746C81.3707 51.5185 81.7886 52.0095 82.4145 52.1712C83.0403 52.333 83.6371 52.1042 83.7475 51.6603Z" fill="white"/>
<path d="M76.1049 51.61C76.2152 51.166 75.7973 50.675 75.1715 50.5133C74.5456 50.3516 73.9488 50.5804 73.8385 51.0243C73.7281 51.4682 74.146 51.9592 74.7719 52.1209C75.3978 52.2827 75.9946 52.0539 76.1049 51.61Z" fill="#3F3D56"/>
<path d="M85.1811 58.1258C85.2914 57.6819 84.8735 57.1909 84.2476 57.0292C83.6218 56.8674 83.025 57.0962 82.9146 57.5402C82.8043 57.9841 83.2222 58.4751 83.8481 58.6368C84.4739 58.7986 85.0707 58.5698 85.1811 58.1258Z" fill="#FF6584"/>
<path d="M86.964 60.5639C87.0093 60.1504 86.8173 59.7891 86.5352 59.757C86.2531 59.7248 85.9877 60.034 85.9424 60.4475C85.8971 60.861 86.089 61.2222 86.3711 61.2544C86.6532 61.2865 86.9187 60.9774 86.964 60.5639Z" fill="#E6E6E6"/>
<path d="M87.5919 65.4473C87.6372 65.0338 87.4453 64.6725 87.1632 64.6404C86.8811 64.6082 86.6156 64.9174 86.5703 65.3309C86.525 65.7444 86.717 66.1056 86.9991 66.1378C87.2812 66.1699 87.5466 65.8608 87.5919 65.4473Z" fill="#3F3D56"/>
<path d="M79.7775 56.1408C79.8228 55.7273 79.6308 55.366 79.3487 55.3339C79.0666 55.3018 78.8012 55.6109 78.7559 56.0244C78.7106 56.4379 78.9025 56.7991 79.1846 56.8313C79.4667 56.8634 79.7322 56.5543 79.7775 56.1408Z" fill="#E6E6E6"/>
<path d="M83.6241 54.6674C83.6695 54.2539 83.4775 53.8926 83.1954 53.8605C82.9133 53.8283 82.6479 54.1375 82.6026 54.551C82.5572 54.9645 82.7492 55.3257 83.0313 55.3579C83.3134 55.39 83.5788 55.0809 83.6241 54.6674Z" fill="#FF6584"/>
<path d="M78.8859 50.6868C78.9312 50.2733 78.7392 49.912 78.4571 49.8799C78.175 49.8478 77.9096 50.1569 77.8643 50.5704C77.819 50.9839 78.0109 51.3451 78.293 51.3773C78.5751 51.4094 78.8405 51.1003 78.8859 50.6868Z" fill="#3F3D56"/>
<path d="M12.3842 48.897C12.4945 48.453 12.0766 47.962 11.4507 47.8003C10.8249 47.6386 10.2281 47.8674 10.1177 48.3113C10.0074 48.7552 10.4253 49.2462 11.0512 49.4079C11.677 49.5697 12.2738 49.3409 12.3842 48.897Z" fill="white"/>
<path d="M4.74161 48.8467C4.85195 48.4027 4.43403 47.9117 3.80817 47.75C3.18231 47.5883 2.58551 47.8171 2.47517 48.261C2.36484 48.7049 2.78275 49.1959 3.40861 49.3576C4.03447 49.5194 4.63128 49.2906 4.74161 48.8467Z" fill="#3F3D56"/>
<path d="M13.8188 55.3625C13.9291 54.9186 13.5112 54.4276 12.8853 54.2659C12.2595 54.1042 11.6627 54.3329 11.5523 54.7769C11.442 55.2208 11.8599 55.7118 12.4858 55.8735C13.1116 56.0352 13.7084 55.8065 13.8188 55.3625Z" fill="#FF6584"/>
<path d="M15.6008 57.8006C15.6461 57.3871 15.4542 57.0258 15.1721 56.9937C14.89 56.9616 14.6246 57.2707 14.5792 57.6842C14.5339 58.0977 14.7259 58.4589 15.008 58.4911C15.2901 58.5232 15.5555 58.2141 15.6008 57.8006Z" fill="#E6E6E6"/>
<path d="M16.2286 62.6841C16.2739 62.2706 16.082 61.9094 15.7999 61.8772C15.5178 61.8451 15.2524 62.1542 15.207 62.5677C15.1617 62.9812 15.3537 63.3425 15.6358 63.3746C15.9179 63.4067 16.1833 63.0976 16.2286 62.6841Z" fill="#3F3D56"/>
<path d="M8.41516 53.3775C8.46047 52.964 8.26851 52.6027 7.98641 52.5706C7.7043 52.5384 7.43888 52.8476 7.39357 53.2611C7.34826 53.6746 7.54021 54.0358 7.82232 54.068C8.10442 54.1001 8.36984 53.791 8.41516 53.3775Z" fill="#E6E6E6"/>
<path d="M12.2618 51.9042C12.3071 51.4907 12.1152 51.1294 11.8331 51.0973C11.551 51.0652 11.2856 51.3743 11.2402 51.7878C11.1949 52.2013 11.3869 52.5626 11.669 52.5947C11.9511 52.6268 12.2165 52.3177 12.2618 51.9042Z" fill="#FF6584"/>
<path d="M7.5227 47.9235C7.56801 47.51 7.37605 47.1488 7.09395 47.1166C6.81185 47.0845 6.54642 47.3936 6.50111 47.8071C6.4558 48.2206 6.64776 48.5818 6.92986 48.614C7.21196 48.6461 7.47739 48.337 7.5227 47.9235Z" fill="#3F3D56"/>
<path d="M61.2894 70.913L61.2969 70.9344C61.3444 71.071 61.4428 71.1819 61.5696 71.2435C61.6961 71.3051 61.8412 71.313 61.9732 71.2656L61.2894 70.913ZM61.2894 70.913L61.2759 70.8948C59.4294 68.3904 58.3653 65.5952 58.3304 62.4094L58.3301 62.3851L58.3221 62.362C58.2749 62.2253 58.2827 62.0749 58.3439 61.9442C58.4051 61.8136 58.5141 61.7139 58.6462 61.6661L64.9954 59.3754C64.9954 59.3754 64.9955 59.3754 64.9955 59.3754C65.1276 59.3279 65.2727 59.3358 65.3993 59.3974C65.526 59.459 65.6244 59.5699 65.672 59.7064C65.672 59.7064 65.672 59.7065 65.672 59.7065L68.6467 68.2789L61.2894 70.913ZM68.3226 68.9748L61.9734 71.2655L68.6467 68.279C68.694 68.4158 68.6861 68.5661 68.6249 68.6967C68.5638 68.8273 68.4547 68.927 68.3226 68.9748Z" fill="#FFE8BE" stroke="#000F3E" stroke-width="0.3"/>
<path d="M65.5628 64.4145L61.312 65.9616C61.2444 65.9862 61.1699 65.9824 61.105 65.9511C61.0401 65.9197 60.9901 65.8634 60.966 65.7944C60.9418 65.7254 60.9455 65.6495 60.9763 65.5833C61.007 65.5171 61.0623 65.4661 61.13 65.4415L65.3807 63.8944C65.4142 63.8822 65.4497 63.8768 65.4853 63.8786C65.5208 63.8804 65.5556 63.8894 65.5878 63.9049C65.6199 63.9204 65.6487 63.9423 65.6726 63.9691C65.6964 63.996 65.7149 64.0274 65.7268 64.0616C65.7388 64.0958 65.744 64.132 65.7423 64.1682C65.7405 64.2044 65.7317 64.2399 65.7165 64.2727C65.7013 64.3054 65.6799 64.3348 65.6535 64.3592C65.6271 64.3835 65.5963 64.4023 65.5628 64.4145Z" fill="#FFD699"/>
<path d="M61.7485 64.195L60.8133 64.5354C60.7799 64.5476 60.7443 64.553 60.7088 64.5512C60.6733 64.5495 60.6385 64.5406 60.6063 64.5251C60.5742 64.5096 60.5453 64.4878 60.5214 64.461C60.4975 64.4341 60.479 64.4027 60.467 64.3686C60.455 64.3344 60.4498 64.2982 60.4515 64.262C60.4532 64.2258 60.4619 64.1903 60.4771 64.1575C60.4923 64.1247 60.5137 64.0953 60.54 64.0709C60.5664 64.0466 60.5971 64.0277 60.6306 64.0155L60.6312 64.0153L61.5664 63.6749C61.6341 63.6504 61.7085 63.6542 61.7733 63.6856C61.8381 63.717 61.8881 63.7733 61.9123 63.8422C61.9364 63.9112 61.9327 63.987 61.902 64.0532C61.8713 64.1193 61.8161 64.1703 61.7485 64.195Z" fill="#FFD699"/>
<path d="M66.3639 66.701L62.1131 68.2481C62.0797 68.2604 62.0441 68.2657 62.0086 68.264C61.9731 68.2622 61.9383 68.2533 61.9061 68.2379C61.8739 68.2224 61.8451 68.2006 61.8212 68.1737C61.7973 68.1468 61.7788 68.1155 61.7668 68.0813C61.7548 68.0472 61.7496 68.011 61.7513 67.9748C61.753 67.9385 61.7617 67.903 61.7769 67.8702C61.7921 67.8374 61.8135 67.808 61.8398 67.7837C61.8662 67.7593 61.897 67.7405 61.9304 67.7282L61.931 67.728L66.1818 66.1809C66.2495 66.1564 66.3239 66.1602 66.3887 66.1916C66.4536 66.223 66.5035 66.2793 66.5277 66.3482C66.5518 66.4171 66.5481 66.493 66.5174 66.5592C66.4867 66.6253 66.4315 66.6763 66.3639 66.701Z" fill="#FFD699"/>
<path d="M65.9626 65.5578L61.7118 67.1049C61.6783 67.1171 61.6428 67.1225 61.6073 67.1207C61.5717 67.119 61.5369 67.1101 61.5047 67.0946C61.4726 67.0791 61.4437 67.0573 61.4198 67.0305C61.3959 67.0036 61.3775 66.9722 61.3655 66.9381C61.3535 66.9039 61.3482 66.8677 61.3499 66.8315C61.3517 66.7953 61.3604 66.7598 61.3756 66.727C61.3907 66.6942 61.4121 66.6648 61.4385 66.6404C61.4648 66.6161 61.4956 66.5972 61.5291 66.585L61.5297 66.5848L65.7805 65.0377C65.8481 65.013 65.9226 65.0167 65.9875 65.0479C66.0524 65.0792 66.1025 65.1355 66.1268 65.2045C66.151 65.2734 66.1474 65.3493 66.1167 65.4156C66.086 65.4818 66.0308 65.5329 65.9632 65.5576L65.9626 65.5578Z" fill="#FFD699"/>
<path d="M62.58 60.4624C62.58 61.0182 62.1389 61.4637 61.6008 61.4637C61.0628 61.4637 60.6217 61.0182 60.6217 60.4624C60.6217 59.9066 61.0628 59.461 61.6008 59.461C62.1389 59.461 62.58 59.9066 62.58 60.4624Z" fill="#FEF4F0" stroke="#000F3E" stroke-width="0.3"/>
</svg>
