<svg width="28" height="28" viewBox="0 0 28 28" fill="none" xmlns="http://www.w3.org/2000/svg">
<path fill-rule="evenodd" clip-rule="evenodd" d="M8.6001 11.0271C9.08335 11.0271 9.4751 11.4189 9.4751 11.9021V19.9056C9.4751 20.3888 9.08335 20.7806 8.6001 20.7806C8.11685 20.7806 7.7251 20.3888 7.7251 19.9056V11.9021C7.7251 11.4189 8.11685 11.0271 8.6001 11.0271Z" fill="#5C5D67"/>
<path fill-rule="evenodd" clip-rule="evenodd" d="M14.0444 7.19739C14.5277 7.19739 14.9194 7.58914 14.9194 8.07239V19.9056C14.9194 20.3888 14.5277 20.7806 14.0444 20.7806C13.5612 20.7806 13.1694 20.3888 13.1694 19.9056V8.07239C13.1694 7.58914 13.5612 7.19739 14.0444 7.19739Z" fill="#5C5D67"/>
<path fill-rule="evenodd" clip-rule="evenodd" d="M19.4 15.2563C19.8833 15.2563 20.275 15.6481 20.275 16.1313V19.9055C20.275 20.3888 19.8833 20.7805 19.4 20.7805C18.9168 20.7805 18.525 20.3888 18.525 19.9055V16.1313C18.525 15.6481 18.9168 15.2563 19.4 15.2563Z" fill="#5C5D67"/>
<path fill-rule="evenodd" clip-rule="evenodd" d="M3.36418 3.56277C4.62026 2.21535 6.41116 1.45837 8.53337 1.45837H19.4667C21.5939 1.45837 23.3853 2.215 24.6405 3.56318C25.889 4.9043 26.5417 6.75952 26.5417 8.84939V19.1507C26.5417 21.2406 25.889 23.0958 24.6405 24.4369C23.3853 25.7851 21.5939 26.5417 19.4667 26.5417H8.53337C6.40616 26.5417 4.61479 25.7851 3.35962 24.4369C2.11104 23.0958 1.45837 21.2406 1.45837 19.1507V8.84939C1.45837 6.75845 2.11445 4.90337 3.36418 3.56277ZM4.64424 4.75606C3.74674 5.71882 3.20837 7.12175 3.20837 8.84939V19.1507C3.20837 20.8794 3.7446 22.2822 4.64046 23.2444C5.52973 24.1996 6.83837 24.7917 8.53337 24.7917H19.4667C21.1617 24.7917 22.4704 24.1996 23.3596 23.2444C24.2555 22.2822 24.7917 20.8794 24.7917 19.1507V8.84939C24.7917 7.12068 24.2555 5.71789 23.3596 4.75564C22.4704 3.80047 21.1617 3.20837 19.4667 3.20837H8.53337C6.84448 3.20837 5.53538 3.80011 4.64424 4.75606Z" fill="#5C5D67"/>
</svg>
