<svg width="124" height="94" viewBox="0 0 124 94" fill="none" xmlns="http://www.w3.org/2000/svg">
<g clip-path="url(#clip0_1_2335)">
<path d="M0 85.2012C0 85.3044 0.0833302 85.3874 0.1871 85.3874H123.813C123.917 85.3874 124 85.3044 124 85.2012C124 85.0979 123.917 85.015 123.813 85.015H0.1871C0.0833302 85.015 0 85.0979 0 85.2012Z" fill="#3F3D56"/>
<path d="M67.9314 32.526L69.2081 24.5925L60.5968 21.1021L59.3217 33.1597L67.9314 32.526Z" fill="#F7C9C9"/>
<path d="M65.7554 27.1426C70.605 27.1426 74.5365 23.2306 74.5365 18.4049C74.5365 13.5791 70.605 9.66711 65.7554 9.66711C60.9057 9.66711 56.9742 13.5791 56.9742 18.4049C56.9742 23.2306 60.9057 27.1426 65.7554 27.1426Z" fill="#F7C9C9"/>
<path d="M65.0557 6.65858C65.3104 6.80564 65.65 6.58348 65.7318 6.30187C65.8135 6.02026 65.7176 5.72144 65.6249 5.44453C65.4676 4.97987 65.3088 4.51365 65.1516 4.04899C64.8151 3.05866 64.4582 2.03391 63.7318 1.27982C62.6328 0.142428 60.8876 -0.147005 59.3169 0.062638C57.2997 0.331732 55.3076 1.41906 54.3706 3.21667C53.4319 5.01429 53.8313 7.52375 55.5278 8.6455C53.1112 11.4006 52.2684 14.4733 52.4021 18.1279C52.5357 21.7826 56.5371 25.1463 59.1487 27.7215C59.732 27.3695 60.2618 25.722 59.9411 25.1228C59.6204 24.5236 60.0795 23.8306 59.6833 23.2799C59.287 22.7291 58.9537 23.6068 59.3562 23.0577C59.6094 22.7119 58.6204 21.9156 58.9977 21.7091C60.8184 20.7078 61.4238 18.4487 62.5684 16.7199C63.9472 14.6344 66.3088 13.2217 68.8071 12.987C70.1829 12.8571 71.6372 13.0918 72.7645 13.8866C73.8918 14.6813 74.6229 16.1019 74.3619 17.4536C75.0396 16.7684 75.3761 15.7655 75.2487 14.8143C75.1213 13.8631 74.5333 12.9807 73.6984 12.4973C74.2047 10.8295 73.7708 8.91146 72.5947 7.62075C71.4187 6.33003 66.6453 6.55063 64.9283 6.89013" fill="#2F2E41"/>
<path d="M64.7884 13.0354C62.5134 13.2795 60.8703 15.2413 59.4836 17.0515C58.6849 18.095 57.8469 19.248 57.8673 20.5607C57.8877 21.8874 58.7792 23.0247 59.2053 24.2826C59.9018 26.3384 59.2226 28.7821 57.5654 30.1902C59.2037 30.4999 60.9741 29.2781 61.2571 27.6432C61.5857 25.7407 60.1361 23.904 60.3075 21.9797C60.4584 20.2853 61.8011 18.9805 62.941 17.7133C64.0809 16.446 65.1532 14.7642 64.6281 13.1449" fill="#2F2E41"/>
<path d="M65.2239 93.0613C65.2239 93.0613 46.1994 94.9387 44.7844 92.7484C43.3694 90.5581 64.0903 88.3678 64.0903 88.3678L65.2239 93.0613Z" fill="#F7C9C9"/>
<path d="M53.0939 57.9633L52.7008 60.0394C53.7715 61.6117 53.8737 63.2732 53.2511 65.0035L74.9484 65.16C74.7157 62.821 74.4594 60.3147 75.3525 58.0164L53.0939 57.9633Z" fill="#F7C9C9"/>
<path d="M88.6334 73.4001L80.7643 67.1359C79.7187 66.3036 79.041 65.066 78.9074 63.7409L77.6952 51.8084L84.9198 49.4116L86.6618 61.2267L91.0029 71.044L88.635 73.4001H88.6334Z" fill="#F7C9C9"/>
<path d="M58.5182 31.7578L69.0524 31.2885L80.2155 36.5796L75.6559 58.1979L52.5436 59.9188L49.399 35.982L58.5182 31.7578Z" fill="#6481F7"/>
<path d="M75.3524 63.1793C76.9357 65.2554 77.5992 70.254 78.2721 75.226C78.2721 75.226 49.028 75.0695 48.8707 75.0695C48.7135 75.0695 53.3407 64.5874 53.3407 64.5874L75.3524 63.1793Z" fill="#2F2E41"/>
<path d="M76.3084 73.8993L78.2737 75.226C78.2737 75.226 106.103 73.3486 103.744 82.1098C101.386 90.8711 93.9964 92.2791 93.9964 92.2791L64.1233 94.0001L63.8089 89.1501C63.8089 89.1501 35.0364 95.5646 32.3635 82.4227C29.6906 69.2809 48.8723 75.0696 48.8723 75.0696L76.3084 73.8993Z" fill="#2F2E41"/>
<path d="M64.5652 84.3001C64.5652 84.3001 65.224 80.8582 69.9408 82.2662C74.6576 83.6743 77.3304 85.5517 77.3304 85.5517L66.0101 88.3678L64.5652 84.3001Z" fill="#F7C9C9"/>
<path d="M76.3634 36.2167C76.3634 36.2167 81.7091 34.3393 83.7531 40.4408C85.797 46.5424 85.3253 51.5488 85.3253 51.5488L77.464 54.052L76.3634 36.2167Z" fill="#6481F7"/>
<path d="M39.7061 74.3529L37.9907 71.346L41.6966 62.167L43.4386 50.3503L50.6632 52.7472L49.4353 64.8251C49.3095 66.0595 48.679 67.211 47.7058 67.9854L39.7061 74.3545V74.3529Z" fill="#F7C9C9"/>
<path d="M51.9933 36.2167C51.9933 36.2167 46.6476 34.3393 44.6037 40.4408C42.5597 46.5424 43.0314 51.5488 43.0314 51.5488L50.8927 54.052L51.9933 36.2167Z" fill="#6481F7"/>
<path d="M90.907 74.7817C92.991 74.7817 94.6804 72.2951 94.6804 69.2277C94.6804 66.1603 92.991 63.6737 90.907 63.6737C88.823 63.6737 87.1335 66.1603 87.1335 69.2277C87.1335 72.2951 88.823 74.7817 90.907 74.7817Z" fill="#F7C9C9"/>
<path d="M37.9215 75.7204C40.0055 75.7204 41.695 73.2338 41.695 70.1664C41.695 67.099 40.0055 64.6124 37.9215 64.6124C35.8375 64.6124 34.1481 67.099 34.1481 70.1664C34.1481 73.2338 35.8375 75.7204 37.9215 75.7204Z" fill="#F7C9C9"/>
<path d="M52.3313 79.4501L66.01 83.3613L68.6829 88.0548L63.5714 89.15" fill="#2F2E41"/>
</g>
<defs>
<clipPath id="clip0_1_2335">
<rect width="124" height="94" fill="white"/>
</clipPath>
</defs>
</svg>
